{"title":"Jatt Airways (2013) Punjabi  Movie DVD SCR RIP GOPI SAHI (TEAM-I","uid":8888917,"size":485347324,"categoryP":"video","categoryS":"movies","magnet":"?xt=urn:btih:6b0763adcb362c93f501fd9e5d7e111371cc581b&amp;dn=Jatt+Airways+%282013%29+Punjabi++Movie+DVD+SCR+RIP+GOPI+SAHI+%28TEAM-I&amp;tr=udp%3A%2F%2Ftracker.openbittorrent.com%3A80&amp;tr=udp%3A%2F%2Fopen.demonii.com%3A1337&amp;tr=udp%3A%2F%2Ftracker.coppersurfer.tk%3A6969&amp;tr=udp%3A%2F%2Fexodus.desync.com%3A6969","seeders":1,"leechers":0,"uploader":"jatt13","files":12,"time":1378535318,"description":"Jatt Airways (2013) Punjabi  Movie DVD SCR RIP GOPI SAHI (TEAM-ICTV)\n\n[img]http://imageshack.us/a/img109/7901/0rmu.jpg[/img]\n\n                   [color=black][size=6]  TEAM ICTV[/size][/color]\nIMDB    [url]http://www.imdb.com/title/tt3084502/[/url]\n\n[img]http://imageshack.us/a/img826/531/em86.png[/img]\n\n\n[color=navy][size=6]Director:Harjit Singh Ricky\nWriter:Rajan Aggarwal\nStars:Alfaaz, Karamjit Anmol, Rana Jang Bahada\nAlfaaz\tKaramjit Anmol\tRana Jang Bahadar\t\t\nJaswinder Bhalla  Padam Bhola Mahek Chahal\nBinnu Dhillon\tKulwant Gill\tTulip Joshi\t\t\nManreet Kaur\tSmriti Khanna\tDeepak Raja\t\t\nB.N. Sharma[/size][/color]\n\n[img]http://imageshack.us/a/img22/5246/t45s.jpg[/img]\n[img]http://imageshack.us/a/img31/4578/bge.png[/img]\n[img]http://imageshack.us/a/img191/7194/gxj2.png[/img]\n[img]http://imageshack.us/a/img199/3007/hs3u.png[/img]\n[img]http://imageshack.us/a/img593/8308/83yd.png[/img]\n[img]http://imageshack.us/a/img197/408/82tj.png[/img]\n[img]http://imageshack.us/a/img202/1502/gvic.png[/img]\n\n[color=red][size=6]Video\nID                             : 0\nFormat                         : AVC\nFormat/Info                    : Advanced Video Codec\nFormat profile                 : &lt;a class=&quot;__cf_email__&quot; href=&quot;/cdn-cgi/l/email-protection&quot; data-cfemail=&quot;bdf0dcd4d3fdf188938c&quot;&gt;[email&amp;#160;protected]&lt;/a&gt;&lt;script cf-hash='f9e31' type=&quot;text/javascript&quot;&gt;\n/* &lt;![CDATA[ */!function(){try{var t=&quot;currentScript&quot;in document?document.currentScript:function(){for(var t=document.getElementsByTagName(&quot;script&quot;),e=t.length;e--;)if(t[e].getAttribute(&quot;cf-hash&quot;))return t[e]}();if(t&amp;&amp;t.previousSibling){var e,r,n,i,c=t.previousSibling,a=c.getAttribute(&quot;data-cfemail&quot;);if(a){for(e=&quot;&quot;,r=parseInt(a.substr(0,2),16),n=2;a.length-n;n+=2)i=parseInt(a.substr(n,2),16)^r,e+=String.fromCharCode(i);e=document.createTextNode(e),c.parentNode.replaceChild(e,c)}}}catch(u){}}();/* ]]&gt; */&lt;/script&gt;\nFormat settings, CABAC         : Yes\nFormat settings, ReFrames      : 1 frame\nCodec ID                       : H264\nDuration                       : 2h 15mn\nBit rate                       : 400 Kbps\nWidth                          : 640 pixels\nHeight                         : 360 pixels\nDisplay aspect ratio           : 16:9\nFrame rate                     : 25.000 fps\nColor space                    : YUV\nChroma subsampling             : 4:2:0\nBit depth                      : 8 bits\nScan type                      : Progressive\nBits/(Pixel*Frame)             : 0.069\nStream size                    : 386 MiB (85%)\n\nAudio\nID                             : 1\nFormat                         : MPEG Audio\nFormat version                 : Version 1\nFormat profile                 : Layer 2\nCodec ID                       : 50\nDuration                       : 2h 15mn\nBit rate mode                  : Constant\nBit rate                       : 64.0 Kbps\nChannel(s)                     : 2 channels\nSampling rate                  : 44.1 KHz\nCompression mode               : Lossy\nStream size                    : 61.5 MiB (13%)\nAlignment                      : Aligned on interleaves\nInterleave, duration           : 41 ms (1.02 video frame)\nInterleave, preload duration   : 52 ms\n\n[/size][/color]","torrent":{"xt":"urn:btih:6b0763adcb362c93f501fd9e5d7e111371cc581b","amp;dn":"Jatt+Airways+%282013%29+Punjabi++Movie+DVD+SCR+RIP+GOPI+SAHI+%28TEAM-I","amp;tr":["udp%3A%2F%2Ftracker.openbittorrent.com%3A80","udp%3A%2F%2Fopen.demonii.com%3A1337","udp%3A%2F%2Ftracker.coppersurfer.tk%3A6969","udp%3A%2F%2Fexodus.desync.com%3A6969"],"infoHash":"6b0763adcb362c93f501fd9e5d7e111371cc581b","infoHashBuffer":{"type":"Buffer","data":[107,7,99,173,203,54,44,147,245,1,253,158,93,126,17,19,113,204,88,27]},"announce":[],"urlList":[]}}